# xmcd
#
# Track frame offsets: 
#        150
#        25560
#        46255
#        63980
#        81147
#        98727
#        118500
#        134995
#        149147
#        166400
#
# Disc length: 2515 seconds
#
# Revision: 6
# Processed by: cddbd v1.5.2PL0 Copyright (c) Steve Scherf et al.
# Submitted via: ExactAudioCopy v0.99pb5
#
DISCID=8a09d10a
DTITLE=Various Artist - Γενναίοι έρωτες
DYEAR=1997
DGENRE=Blues
TTITLE0=Αργοναύτες - πεζοναύτες
TTITLE1=Είσαι γλυκό του κουταλιού
TTITLE2=Αχ! να περάσει ο πυρτετός
TTITLE3=Ένα πλοίο η Ρεβέκκα
TTITLE4=Τέσσερα φιλιά
TTITLE5=Η νύχτα έχει όνομα
TTITLE6=Το μυστήριο με μένα
TTITLE7=Έτσι είμαστε οι άνδρες
TTITLE8=Τα φώτα στο διάστημα
TTITLE9=Τόπος, χρόνος θα υπάρξει
EXTD=YEAR: 1997
EXTT0=
EXTT1=
EXTT2=
EXTT3=
EXTT4=
EXTT5=
EXTT6=
EXTT7=
EXTT8=
EXTT9=
PLAYORDER=
